<svg xmlns="http://www.w3.org/2000/svg" version="1.1" xmlns:xlink="http://www.w3.org/1999/xlink" viewBox="0 0 40 40" display="none" width="0" height="0"><symbol id="icon-5781ca2e1fb79e9a339ab93b15347b29" viewBox="0 0 40 40"><path d="M36.3,32.1c-2.6,0.7-5.5-0.9-6.8-3.5l-2.9-6.2H20h-6.6l-2.9,6.2c-1.2,2.6-4.1,4.2-6.8,3.5 c-2.6-0.7-4.2-3.4-3.5-6L2,19.3C2,19.2,2,19.1,2.1,19l1.5-5.8c0.8-3,3.9-5.4,6.9-5.4H20h9.5c3,0,6.1,2.4,6.9,5.4l1.5,5.8 c0,0.1,0.1,0.2,0.1,0.3l1.8,6.8C40.5,28.7,39,31.4,36.3,32.1z M16.2,15c0-0.5-0.4-0.9-0.9-0.9h-2.5v-2.5c0-0.5-0.4-0.9-0.9-0.9H11 c-0.5,0-0.9,0.4-0.9,0.9v2.5H7.5c-0.5,0-0.9,0.4-0.9,0.9v0.8c0,0.5,0.4,0.9,0.9,0.9h2.6v2.6c0,0.5,0.4,0.9,0.9,0.9h0.8 c0.5,0,0.9-0.4,0.9-0.9v-2.6h2.5c0.5,0,0.9-0.4,0.9-0.9V15z M25.4,13.8c-0.9,0-1.7,0.7-1.7,1.7s0.7,1.7,1.7,1.7 c0.9,0,1.7-0.7,1.7-1.7S26.3,13.8,25.4,13.8z M28.7,10.5c-0.9,0-1.7,0.7-1.7,1.7c0,0.9,0.7,1.7,1.7,1.7c0.9,0,1.7-0.7,1.7-1.7 C30.3,11.2,29.6,10.5,28.7,10.5z M28.7,17c-0.9,0-1.7,0.7-1.7,1.7c0,0.9,0.7,1.7,1.7,1.7c0.9,0,1.7-0.7,1.7-1.7 C30.3,17.8,29.6,17,28.7,17z M31.9,13.8c-0.9,0-1.7,0.7-1.7,1.7s0.7,1.7,1.7,1.7c0.9,0,1.7-0.7,1.7-1.7S32.9,13.8,31.9,13.8z"></path></symbol><symbol id="icon-5ff9be0fbfb12f04b823b188437103a1" viewBox="0 0 40 40"><path d="M31.8,11.4c0.3,0.3,0.6,0.7,0.8,1.3s0.3,1,0.3,1.5v19.1c0,0.4-0.2,0.8-0.5,1.1c-0.3,0.3-0.7,0.5-1.1,0.5H9.1 c-0.4,0-0.8-0.2-1.1-0.5c-0.3-0.3-0.5-0.7-0.5-1.1V6.7c0-0.4,0.2-0.8,0.5-1.1c0.3-0.3,0.7-0.5,1.1-0.5h14.9c0.4,0,0.9,0.1,1.5,0.3 c0.5,0.2,1,0.5,1.3,0.8L31.8,11.4z M24.5,7.4v6.2h6.2c-0.1-0.3-0.2-0.5-0.4-0.7l-5.2-5.2C25,7.6,24.8,7.5,24.5,7.4z M30.8,32.7v-17 h-6.9c-0.4,0-0.8-0.2-1.1-0.5c-0.3-0.3-0.5-0.7-0.5-1.1V7.3H9.6v25.5L30.8,32.7L30.8,32.7z"></path></symbol><symbol id="icon-a735734e4d8995524a2d26f22d9df894" viewBox="0 0 40 40"><path d="M30.4,18.5c-.6.9-1.5,2.1-3.3,3.5l-1.9,1.5c-.5.4-.8.7-1.4,1.6s-.6,1.2-.7,2c0,0,0,0,0,0,0,.6-.5,1.2-1.2,1.2s-.2,0-.2,0h-4.5c0,0-.2,0-.2,0-.6,0-1.2-.5-1.2-1.2s0-.2,0-.4c.2-2,.6-2.7.9-3.6.4-1.1,1.7-2.5,3.5-3.9l1.8-1.4c.6-.4,1.1-.9,1.4-1.5.7-.9,1.2-1.9,1.2-3s-.2-2.4-.9-3.4c-.7-1-2.1-1.5-4-1.5s-3.3.6-4.1,1.9c-.5.8-.7,1.7-.7,2.6,0,0,0,.1,0,.2,0,.6-.5,1.1-1.1,1.2h0s-4.8,0-4.8,0h0c-.6,0-1.1-.5-1.1-1.2s0-.2,0-.3c.3-4.4,1.6-7.3,3.9-8.8,1.9-1.3,4.7-2.4,7.5-2.4s6.3.9,8.8,2.7c2.5,1.8,3.9,4.6,3.9,8.1s-.5,4.5-1.6,6ZM15.7,31.4c0-.6.5-1.1,1.1-1.1s.2,0,.3,0h4.9c0,0,.2,0,.3,0,.6,0,1.1.5,1.1,1.1s0,.2,0,.3v4.1c0,0,0,.2,0,.3,0,.6-.5,1.1-1.1,1.1h0s-5.5,0-5.5,0c-.6,0-1.1-.5-1.1-1.1s0,0,0-.1v-4.3s0,0,0-.1Z"></path></symbol><symbol id="icon-9e48e01ad6aab28fa88d50b115b24ddb" viewBox="0 0 40 40"><path d="M30.4,22.9v-14.8l-15.6,4v20.3c-.3,4.3-5,7.1-8.9,5.2-3.2-1.5-3.8-5.4-1.6-8.1,2-2.3,5.2-3,8-1.7V7.7c0-.4.4-.9.7-1L31.5,1.8c.7,0,1.2.2,1.4.9,0,8.4.1,16.9,0,25.3-.6,3.8-4.9,6.2-8.5,4.8-3.2-1.3-4.4-4.9-2.4-7.7,1.8-2.7,5.6-3.6,8.5-2.1Z"></path></symbol><symbol id="icon-8d23f0100c0ee8153b82abdcf43b0b85" viewBox="0 0 40 40"><path d="M23.9,33.6h-5.2l-6.5,6.5v-6.5H4.5V10.4L11,3.9h24.5V22L23.9,33.6z M32.9,6.5H12.2 v19.4h5.2V31l5.2-5.2h5.2l5.2-5.2V6.5z M26.5,11.7H29v7.7h-2.6V11.7z M20,11.7h2.6v7.7H20V11.7z"></path></symbol><symbol id="icon-42aae34beb9f8aa4413eae733dcb95b4" viewBox="0 0 40 40"><path d="M32.4,34.7c-0.3,0.3-0.7,0.5-1.1,0.5H9.1c-0.4,0-0.8-0.2-1.1-0.5c-0.3-0.3-0.5-0.7-0.5-1.1V6.4 C7.5,6,7.7,5.6,8,5.3C8.3,5,8.7,4.8,9.1,4.8h13.3l-0.1,9.3c0,0.4,0.2,0.8,0.5,1.1c0.3,0.3,0.7,0.5,1.1,0.5h9v17.9 C32.9,34,32.7,34.4,32.4,34.7z M16,23c-0.2-0.3-0.4-0.5-0.6-0.7c-0.3-0.2-0.6-0.3-0.9-0.4c-0.3-0.1-0.7-0.1-1.1-0.1h-2.6v7.1h1.9 v-2.2h0.8c0.4,0,0.7,0,1.1-0.1c0.3-0.1,0.6-0.2,0.9-0.4c0.3-0.2,0.5-0.5,0.6-0.8c0.2-0.3,0.2-0.7,0.2-1.1C16.2,23.7,16.1,23.3,16,23 z M23.4,23.7c-0.2-0.4-0.4-0.8-0.7-1.1c-0.3-0.3-0.7-0.5-1.2-0.6c-0.4-0.1-0.9-0.2-1.5-0.2h-2.1v7.1h2.2c0.5,0,1-0.1,1.4-0.2 c0.4-0.1,0.8-0.4,1.1-0.6c0.3-0.3,0.6-0.7,0.7-1.1c0.2-0.5,0.3-1,0.3-1.6C23.6,24.7,23.6,24.1,23.4,23.7z M30.1,21.8h-4.6v7.1h1.9 v-2.6h2.4v-1.6h-2.4v-1.4h2.7V21.8z M21.2,27c-0.2,0.2-0.4,0.3-0.6,0.3c-0.2,0.1-0.5,0.1-0.7,0.1h-0.1v-4.1h0.1c0.3,0,0.5,0,0.7,0.1 c0.2,0.1,0.4,0.2,0.6,0.3c0.2,0.1,0.3,0.3,0.4,0.6c0.1,0.3,0.1,0.6,0.1,1c0,0.4,0,0.8-0.1,1C21.5,26.6,21.4,26.8,21.2,27z M14.1,24.9c-0.2,0.2-0.5,0.3-0.8,0.3h-0.7v-1.9h0.6c0.4,0,0.6,0.1,0.8,0.2c0.2,0.1,0.3,0.4,0.3,0.7C14.4,24.5,14.3,24.7,14.1,24.9z M24.5,5.5c0.2,0.2,0.4,0.3,0.6,0.5l6.8,6.9c0.2,0.2,0.3,0.4,0.5,0.6l-7.9-0.1V5.5z"></path></symbol><symbol id="icon-b4ecc41beadbec7df3b3e34a22693f76" viewBox="0 0 40 40"><path d="M31.5,25.6c-.4,1.2-.9,2.4-1.7,3.6-1.8,2.7-5.3,6.2-11.8,6.2h-1.3c-5.3,0-9.4-2.3-11.8-6.5-2.2-3.7-2.4-7.7-2.4-13.1h0c0-5.3,3.2-8.2,7-8.7,2.8-.4,6.4-.4,10.5-.4h0c6.5,0,8.2,0,10.6.3h0c5.6.6,8.9,4.1,8.9,9.1v.6c0,4.7-3.4,8.5-8,8.9ZM36.5,16.1c0-3.7-2.3-5.7-6.4-6.2-2.3-.2-3.6-.3-10.1-.3s-7.5,0-9.8.4c-3.3.5-4.6,2.4-4.6,5.7h0c0,5.2.3,8.5,2,11.6,1.9,3.6,5.4,4.9,9.4,4.9h1.2c5.2,0,7.7-2.5,9.1-4.7.7-1.1,1.3-2.4,1.6-3.9l.2-1h1.4c3.2,0,6-2.6,6-5.9v-.6ZM30.1,19.4c-.6,0-1-.4-1-.8v-4.5c0-.5.4-.8,1-.8,2,0,3.2,1.2,3.2,3.1s-1.1,3.1-3.2,3.1ZM18.8,27.3c-.3.2-.7.3-1.2.3s-.8-.1-1.1-.3c-1.2-.7-3-1.8-4.1-2.9-1.7-1.6-3-3.7-3-6h0c0-2.6,1.8-4.9,4.6-4.9s2.8.8,3.6,2c.8-1.2,2-2,3.6-2,2.8,0,4.7,2.3,4.7,4.9s-1.3,4.4-3,6c-1.1,1.1-2.8,2.2-4,2.9Z"></path></symbol><symbol id="icon-e2a43bdcfd2e22a246a1598df579c4ad" viewBox="0 0 40 40"><path d="M24.3,27v4.2c0,0.9-0.3,1.3-0.8,1.3c-0.3,0-0.6-0.1-0.9-0.4v-6c0.3-0.3,0.6-0.4,0.9-0.4C24,25.6,24.3,26.1,24.3,27L24.3,27z M31.1,27v0.9h-1.8V27c0-0.9,0.3-1.4,0.9-1.4C30.8,25.6,31.1,26.1,31.1,27L31.1,27z M11.7,22.6h2.1v-1.9H7.6v1.9h2.1v11.4h2 L11.7,22.6L11.7,22.6z M17.5,34.1h1.8v-9.9h-1.8v7.6c-0.4,0.6-0.8,0.8-1.1,0.8c-0.2,0-0.4-0.1-0.4-0.4c0,0,0-0.3,0-0.7v-7.3h-1.8V32 c0,0.7,0.1,1.1,0.2,1.5c0.2,0.5,0.5,0.7,1.2,0.7c0.6,0,1.3-0.4,2-1.2L17.5,34.1L17.5,34.1z M26.1,31.1v-4c0-1-0.1-1.6-0.2-2 c-0.2-0.7-0.7-1.1-1.4-1.1c-0.7,0-1.3,0.4-1.9,1.1v-4.4h-1.8v13.3h1.8v-1c0.6,0.7,1.2,1.1,1.9,1.1c0.7,0,1.2-0.4,1.4-1.1 C26,32.7,26.1,32.1,26.1,31.1L26.1,31.1z M32.9,30.9v-0.3H31c0,0.7,0,1.1,0,1.2c-0.1,0.5-0.4,0.7-0.8,0.7c-0.6,0-0.9-0.5-0.9-1.4 v-1.7h3.6v-2.1c0-1.1-0.2-1.8-0.5-2.3c-0.5-0.7-1.2-1-2.1-1c-0.9,0-1.6,0.3-2.1,1c-0.4,0.5-0.6,1.3-0.6,2.3v3.5 c0,1.1,0.2,1.8,0.6,2.3c0.5,0.7,1.2,1,2.2,1c1,0,1.7-0.4,2.2-1.1c0.2-0.4,0.4-0.7,0.4-1.1C32.9,31.9,32.9,31.5,32.9,30.9L32.9,30.9z M20.7,12.5V8.3c0-0.9-0.3-1.4-0.9-1.4c-0.6,0-0.9,0.5-0.9,1.4v4.2c0,0.9,0.3,1.4,0.9,1.4C20.4,14,20.7,13.5,20.7,12.5z M35.1,27.6 c0,3.1-0.2,5.5-0.5,7c-0.2,0.8-0.6,1.5-1.2,2c-0.6,0.5-1.3,0.8-2,0.9c-2.5,0.3-6.2,0.4-11.1,0.4s-8.7-0.1-11.1-0.4 c-0.8-0.1-1.5-0.4-2.1-0.9c-0.6-0.5-1-1.2-1.2-2c-0.3-1.5-0.5-3.8-0.5-7c0-3.1,0.2-5.5,0.5-7c0.2-0.8,0.6-1.5,1.2-2 c0.6-0.5,1.3-0.9,2.1-0.9c2.5-0.3,6.2-0.4,11.1-0.4s8.7,0.1,11.1,0.4c0.8,0.1,1.5,0.4,2.1,0.9c0.6,0.5,1,1.2,1.2,2 C34.9,22.1,35.1,24.4,35.1,27.6z M15.1,2h2l-2.4,8v5.4h-2V10c-0.2-1-0.6-2.4-1.2-4.3c-0.5-1.4-0.9-2.6-1.3-3.8h2.1l1.4,5.3L15.1,2z M22.5,8.7v3.5c0,1.1-0.2,1.9-0.6,2.4c-0.5,0.7-1.2,1-2.1,1c-0.9,0-1.6-0.3-2.1-1c-0.4-0.5-0.6-1.3-0.6-2.4V8.7 c0-1.1,0.2-1.9,0.6-2.3c0.5-0.7,1.2-1,2.1-1c0.9,0,1.6,0.3,2.1,1C22.3,6.8,22.5,7.6,22.5,8.7z M29.2,5.4v10h-1.8v-1.1 c-0.7,0.8-1.4,1.2-2.1,1.2c-0.6,0-1-0.2-1.2-0.7C24,14.5,24,14,24,13.4V5.4h1.8v7.4c0,0.4,0,0.7,0,0.7c0,0.3,0.2,0.4,0.4,0.4 c0.4,0,0.7-0.3,1.1-0.9V5.4C27.4,5.4,29.2,5.4,29.2,5.4z"></path></symbol><symbol id="icon-0c4db87eff374f0f1ef47f8f043f0132" viewBox="0 0 40 40"><path d="M36.3,10.2c-1,1.3-2.1,2.5-3.4,3.5c0,0.2,0,0.4,0,1c0,1.7-0.2,3.6-0.9,5.3c-0.6,1.7-1.2,3.5-2.4,5.1 c-1.1,1.5-2.3,3.1-3.7,4.3c-1.4,1.2-3.3,2.3-5.3,3c-2.1,0.8-4.2,1.2-6.6,1.2c-3.6,0-7-1-10.2-3c0.4,0,1.1,0.1,1.5,0.1 c3.1,0,5.9-1,8.2-2.9c-1.4,0-2.7-0.4-3.8-1.3c-1.2-1-1.9-2-2.2-3.3c0.4,0.1,1,0.1,1.2,0.1c0.6,0,1.2-0.1,1.7-0.2 c-1.4-0.3-2.7-1.1-3.7-2.3s-1.4-2.6-1.4-4.2v-0.1c1,0.6,2,0.9,3,0.9c-1-0.6-1.5-1.3-2.2-2.4c-0.6-1-0.9-2.1-0.9-3.3s0.3-2.3,1-3.4 c1.5,2.1,3.6,3.6,6,4.9s4.9,2,7.6,2.1c-0.1-0.6-0.1-1.1-0.1-1.4c0-1.8,0.8-3.5,2-4.7c1.2-1.2,2.9-2,4.7-2c2,0,3.6,0.8,4.8,2.1 c1.4-0.3,2.9-0.9,4.2-1.5c-0.4,1.5-1.4,2.7-2.9,3.6C33.8,11.2,35.1,10.9,36.3,10.2L36.3,10.2z"></path></symbol><symbol id="icon-85976685de3e4af37529a1ce5d57d2a7" viewBox="0 0 40 40"><path d="M20,7c4.2,0,4.7,0,6.3,0.1c1.5,0.1,2.3,0.3,3,0.5C30,8,30.5,8.3,31.1,8.9c0.5,0.5,0.9,1.1,1.2,1.8c0.2,0.5,0.5,1.4,0.5,3 C33,15.3,33,15.8,33,20s0,4.7-0.1,6.3c-0.1,1.5-0.3,2.3-0.5,3c-0.3,0.7-0.6,1.2-1.2,1.8c-0.5,0.5-1.1,0.9-1.8,1.2 c-0.5,0.2-1.4,0.5-3,0.5C24.7,33,24.2,33,20,33s-4.7,0-6.3-0.1c-1.5-0.1-2.3-0.3-3-0.5C10,32,9.5,31.7,8.9,31.1 C8.4,30.6,8,30,7.7,29.3c-0.2-0.5-0.5-1.4-0.5-3C7,24.7,7,24.2,7,20s0-4.7,0.1-6.3c0.1-1.5,0.3-2.3,0.5-3C8,10,8.3,9.5,8.9,8.9 C9.4,8.4,10,8,10.7,7.7c0.5-0.2,1.4-0.5,3-0.5C15.3,7.1,15.8,7,20,7z M20,4.3c-4.3,0-4.8,0-6.5,0.1c-1.6,0-2.8,0.3-3.8,0.7 C8.7,5.5,7.8,6,6.9,6.9C6,7.8,5.5,8.7,5.1,9.7c-0.4,1-0.6,2.1-0.7,3.8c-0.1,1.7-0.1,2.2-0.1,6.5s0,4.8,0.1,6.5 c0,1.6,0.3,2.8,0.7,3.8c0.4,1,0.9,1.9,1.8,2.8c0.9,0.9,1.7,1.4,2.8,1.8c1,0.4,2.1,0.6,3.8,0.7c1.6,0.1,2.2,0.1,6.5,0.1 s4.8,0,6.5-0.1c1.6-0.1,2.9-0.3,3.8-0.7c1-0.4,1.9-0.9,2.8-1.8c0.9-0.9,1.4-1.7,1.8-2.8c0.4-1,0.6-2.1,0.7-3.8 c0.1-1.6,0.1-2.2,0.1-6.5s0-4.8-0.1-6.5c-0.1-1.6-0.3-2.9-0.7-3.8c-0.4-1-0.9-1.9-1.8-2.8c-0.9-0.9-1.7-1.4-2.8-1.8 c-1-0.4-2.1-0.6-3.8-0.7C24.8,4.3,24.3,4.3,20,4.3L20,4.3L20,4.3z"></path><path d="M20,11.9c-4.5,0-8.1,3.7-8.1,8.1s3.7,8.1,8.1,8.1s8.1-3.7,8.1-8.1S24.5,11.9,20,11.9z M20,25.2c-2.9,0-5.2-2.3-5.2-5.2 s2.3-5.2,5.2-5.2s5.2,2.3,5.2,5.2S22.9,25.2,20,25.2z"></path><path d="M30.6,11.6c0,1-0.8,1.9-1.9,1.9c-1,0-1.9-0.8-1.9-1.9s0.8-1.9,1.9-1.9C29.8,9.7,30.6,10.5,30.6,11.6z"></path></symbol><symbol id="icon-49c7b76f0edfabe10e324ba1ac396f84" viewBox="0 0 40 40"><path d="M36.5,12.7c0,.7-.7,1.1-1.3.8l-3-2.9-11.1,11.1c-.4.3-.8.5-1.3.2-.3-.1-1.6-1.5-1.8-1.7-.2-.3-.2-.7,0-1,3.3-3.5,7.8-7.8,11.2-11.2,0,0,0,0,.1,0h0c0,0-3.1-3.2-3.1-3.2-.4-.5,0-1.2.5-1.2h9.2c.3.2.5.4.5.8v8.6ZM20.9,9.1h-12.4c-1.5.2-2.5,1.3-2.6,2.8v18.5c0,1.3.9,2.5,2.3,2.7,6.8.2,13.6,0,20.4,0,1.5,0,2.6-1,2.8-2.5v-10.7c.2-1.4,2.1-1.5,2.4,0v10.8c-.2,2.6-2.4,4.7-4.9,4.8H8.4c-2.6-.2-4.7-2.3-4.9-4.9V11.7c.2-2.7,2.2-5,5-5h12.3c1.5.2,1.5,2.2,0,2.4Z"></path></symbol><symbol id="icon-f2a2221dde314608e50536c1e00ef4d1" viewBox="0 0 40 40"><path d="M15.8,18.9c0-0.2,0-0.4,0-0.6c0-3.4,0-6.8,0-10.2c0-0.8,0-0.8,0.8-0.8c3,0,6,0,9.1,0c1.3,0,2,0.5,2.6,1.6 c0.2,0.5,0.4,0.9,0.6,1.4c0.3,0.9,0.4,1.7,0.7,2.6c0.1,0.2,0.3,0.4,0.4,0.5c0.5,0.1,0.9,0,1.4,0c0.2-2.9,0.4-5.8,0.5-8.6 C23.5,5.5,15.1,5.2,6.7,5c0,0.5,0,1,0,1.5c0,0.1,0.2,0.3,0.4,0.4C7.7,7.1,8.3,7.2,9,7.3c1.5,0.3,1.9,0.8,1.9,2.3 c0,2.7,0.1,5.4,0.1,8.2c0,4.4-0.1,8.8-0.1,13.1c0,0.2,0,0.5-0.1,0.7c-0.1,0.5-0.4,0.9-0.8,1c-0.3,0.1-0.6,0.2-1,0.3 c-0.8,0.2-1.6,0.3-2.3,0.5c0,0.7,0,1.2,0,1.8c0.3,0,0.6,0,0.9,0c2.1-0.1,4.2-0.2,6.3-0.2c5.9,0,11.7,0.1,17.6,0.2 c0.8,0,0.7,0,0.8-0.7c0.2-2,0.5-4,0.7-6c0.1-0.7,0.2-1.5,0.3-2.3c-0.4,0-0.6,0-0.9,0c-0.6-0.1-0.9,0.2-1.1,0.7 c-0.5,1.2-1,2.4-1.6,3.6c-0.7,1.4-1.8,2.4-3.5,2.4c-2.7,0.1-5.4,0.1-8.2,0.1c-1.8,0-2.4-0.9-2.4-2.7c0-2.8,0-5.7,0-8.5 c0-0.2,0-0.4,0-0.6c0.1,0,0.2-0.1,0.2-0.1c1.9,0,3.8,0.1,5.7,0.1c1,0,1.8,0.4,2.1,1.5c0.1,0.5,0.2,0.9,0.4,1.4 c0.3,1.3,0.3,1.3,1.7,1.3c0.5,0,0.6-0.2,0.6-0.6c0-3.2,0-6.4,0.1-9.5c0-0.3,0-0.5,0-0.8c-0.5,0-1,0-1.4,0c-0.4,0-0.5,0.1-0.6,0.4 c-0.2,0.8-0.4,1.6-0.6,2.4c-0.3,1.1-0.7,1.4-1.8,1.5c-0.8,0.1-1.6,0.1-2.4,0.2C18.4,18.9,17.1,18.9,15.8,18.9L15.8,18.9z"></path></symbol><symbol id="icon-f6c059b2966f9500db6aeb2661fbd174" viewBox="0 0 40 40"><path d="M32.6,12.3h-17v-1C15.6,9,17.8,9,18.8,9c1.3,0,1.9,0.1,1.9,0.1V3c0,0-1.1-0.3-2.7-0.3c-3.4,0-10,1-10,8.7v0.9H4.8V18H8v12 H5.1v5.7H19V30h-3.4V18h9.3v12H22v5.7h13.4V30h-2.9V12.3z"></path></symbol><symbol id="icon-49063465275d0a5582c7c5dfbf0e4536" viewBox="0 0 40 40"><path d="M13.8,27.4l0.3-4.2L13.8,14c0-0.1-0.1-0.2-0.1-0.3c-0.1-0.1-0.2-0.1-0.3-0.1c-0.1,0-0.2,0-0.3,0.1C13.1,13.8,13,13.9,13,14 l-0.2,9.2l0.2,4.2c0,0.1,0.1,0.2,0.1,0.3c0.1,0.1,0.2,0.1,0.3,0.1C13.7,27.8,13.8,27.7,13.8,27.4z M18.8,26.9l0.2-3.7l-0.2-10.3 c0-0.2-0.1-0.3-0.2-0.4c-0.1-0.1-0.2-0.1-0.3-0.1s-0.2,0-0.3,0.1c-0.1,0.1-0.2,0.2-0.2,0.4l0,0.1l-0.2,10.1c0,0,0.1,1.4,0.2,4.1v0 c0,0.1,0,0.2,0.1,0.3c0.1,0.1,0.2,0.2,0.4,0.2c0.1,0,0.2-0.1,0.3-0.2c0.1-0.1,0.2-0.2,0.2-0.4L18.8,26.9z M1.2,20.9l0.3,2.2 l-0.3,2.2c0,0.1-0.1,0.2-0.2,0.2c-0.1,0-0.1-0.1-0.2-0.2l-0.3-2.2l0.3-2.2c0-0.1,0.1-0.2,0.2-0.2S1.2,20.8,1.2,20.9z M2.7,19.5 l0.4,3.6l-0.4,3.6c0,0.1-0.1,0.2-0.2,0.2c-0.1,0-0.2-0.1-0.2-0.2L2,23.2l0.4-3.6c0-0.1,0.1-0.2,0.2-0.2C2.6,19.4,2.7,19.4,2.7,19.5z M4.2,18.9l0.4,4.3l-0.4,4.2c0,0.1-0.1,0.2-0.2,0.2c-0.1,0-0.2-0.1-0.2-0.2l-0.4-4.2l0.4-4.3c0-0.1,0.1-0.2,0.2-0.2 C4.2,18.7,4.2,18.7,4.2,18.9z M5.8,18.8l0.4,4.4l-0.4,4.3c0,0.2-0.1,0.2-0.2,0.2c-0.1,0-0.2-0.1-0.2-0.2L5,23.2l0.4-4.4 c0-0.2,0.1-0.2,0.2-0.2C5.7,18.5,5.8,18.6,5.8,18.8z M7.4,19.1l0.4,4.1l-0.4,4.3c0,0.2-0.1,0.3-0.3,0.3c-0.1,0-0.1,0-0.2-0.1 c-0.1-0.1-0.1-0.1-0.1-0.2l-0.3-4.3l0.3-4.1c0-0.1,0-0.1,0.1-0.2C7,18.8,7,18.8,7.1,18.8C7.3,18.8,7.4,18.9,7.4,19.1L7.4,19.1z M9,16.5l0.4,6.7L9,27.5c0,0.1,0,0.2-0.1,0.2c-0.1,0.1-0.1,0.1-0.2,0.1c-0.2,0-0.3-0.1-0.3-0.3l-0.3-4.3l0.3-6.7 c0-0.2,0.1-0.3,0.3-0.3c0.1,0,0.1,0,0.2,0.1S9,16.4,9,16.5z M10.5,15l0.3,8.2l-0.3,4.3c0,0.1,0,0.2-0.1,0.2 c-0.1,0.1-0.1,0.1-0.2,0.1c-0.2,0-0.3-0.1-0.3-0.3l-0.3-4.3L9.9,15c0-0.2,0.1-0.3,0.3-0.3c0.1,0,0.2,0,0.2,0.1 C10.5,14.8,10.5,14.9,10.5,15z M12.2,14.3l0.3,8.9l-0.3,4.2c0,0.2-0.1,0.4-0.4,0.4c-0.2,0-0.3-0.1-0.4-0.4l-0.3-4.2l0.3-8.9 c0-0.1,0-0.2,0.1-0.3c0.1-0.1,0.2-0.1,0.2-0.1c0.1,0,0.2,0,0.3,0.1C12.1,14.1,12.2,14.2,12.2,14.3z M18.8,27.3L18.8,27.3L18.8,27.3z M15.4,14.2l0.3,8.9l-0.3,4.2c0,0.1,0,0.2-0.1,0.3c-0.1,0.1-0.2,0.1-0.3,0.1c-0.1,0-0.2,0-0.3-0.1s-0.1-0.2-0.1-0.3l-0.2-4.2 l0.2-8.9c0-0.1,0-0.2,0.1-0.3c0.1-0.1,0.2-0.1,0.3-0.1c0.1,0,0.2,0,0.3,0.1C15.4,14,15.4,14.1,15.4,14.2L15.4,14.2z M17.1,14.6 l0.2,8.6l-0.2,4.1c0,0.1,0,0.2-0.1,0.3c-0.1,0.1-0.2,0.1-0.3,0.1c-0.1,0-0.2,0-0.3-0.1c-0.1-0.1-0.1-0.2-0.2-0.3L16,23.2l0.2-8.6 c0-0.1,0.1-0.3,0.2-0.4c0.1-0.1,0.2-0.1,0.3-0.1c0.1,0,0.2,0,0.3,0.1C17.1,14.3,17.1,14.4,17.1,14.6z M20.7,23.2l-0.2,4 c0,0.2-0.1,0.3-0.2,0.4c-0.1,0.1-0.2,0.2-0.4,0.2c-0.1,0-0.3-0.1-0.4-0.2c-0.1-0.1-0.2-0.2-0.2-0.4l-0.1-2l-0.1-2L19.4,12V12 c0-0.2,0.1-0.3,0.2-0.4c0.1-0.1,0.2-0.1,0.3-0.1c0.1,0,0.2,0,0.3,0.1c0.2,0.1,0.2,0.2,0.3,0.5L20.7,23.2z M39.4,22.9 c0,1.4-0.5,2.5-1.4,3.5c-0.9,1-2,1.4-3.4,1.4H21.4c-0.1,0-0.3-0.1-0.4-0.2c-0.1-0.1-0.2-0.2-0.2-0.4V11.5c0-0.3,0.2-0.5,0.5-0.6 c1-0.4,2-0.6,3-0.6c2.2,0,4.1,0.8,5.7,2.3c1.6,1.5,2.5,3.4,2.7,5.7c0.6-0.3,1.2-0.4,1.8-0.4c1.3,0,2.4,0.5,3.4,1.5 C38.9,20.3,39.4,21.5,39.4,22.9L39.4,22.9z"></path></symbol><symbol id="icon-6f1173b99f06aa4855b8fd26db52c969" viewBox="0 0 40 40"><path d="M26.9,26.3c0-0.4-0.2-0.8-0.6-1c-2.6-1.5-5.6-2.3-9-2.3c-1.8,0-3.7,0.2-5.8,0.7c-0.6,0.1-0.8,0.5-0.8,1 c0,0.3,0.1,0.5,0.3,0.7c0.2,0.2,0.4,0.3,0.7,0.3c0.1,0,0.3-0.1,0.7-0.2c1.8-0.4,3.4-0.5,4.9-0.5c3,0,5.7,0.7,8,2.1 c0.3,0.1,0.5,0.2,0.7,0.2c0.3,0,0.5-0.1,0.7-0.3C26.8,26.8,26.9,26.6,26.9,26.3L26.9,26.3z M28.8,22c0-0.5-0.2-0.9-0.7-1.2 c-3.2-1.9-6.8-2.8-11-2.8c-2,0-4.1,0.3-6.1,0.8c-0.6,0.2-1,0.6-1,1.3c0,0.3,0.1,0.6,0.4,0.9c0.2,0.2,0.5,0.4,0.9,0.4 c0.1,0,0.3-0.1,0.7-0.2c1.6-0.4,3.3-0.7,5-0.7c3.7,0,7,0.8,9.8,2.5c0.3,0.2,0.6,0.3,0.8,0.3c0.3,0,0.6-0.1,0.9-0.4 C28.7,22.6,28.8,22.3,28.8,22L28.8,22z M31,17c0-0.6-0.3-1.1-0.8-1.4c-1.7-1-3.6-1.7-5.9-2.2c-2.2-0.5-4.5-0.8-6.9-0.8 c-2.7,0-5.2,0.3-7.3,0.9c-0.3,0.1-0.6,0.3-0.8,0.5c-0.2,0.2-0.3,0.6-0.3,1c0,0.4,0.1,0.8,0.4,1c0.3,0.3,0.6,0.4,1,0.4 c0.1,0,0.4-0.1,0.8-0.2c1.8-0.5,3.8-0.7,6.2-0.7c2.1,0,4.2,0.2,6.2,0.7c2,0.5,3.7,1.1,5.1,1.9c0.3,0.2,0.5,0.2,0.8,0.2 c0.4,0,0.7-0.1,1-0.4C30.8,17.8,31,17.4,31,17L31,17z M35.1,20c0,2.8-0.7,5.4-2.1,7.7c-1.4,2.4-3.3,4.2-5.6,5.6 c-2.4,1.4-4.9,2.1-7.7,2.1c-2.8,0-5.4-0.7-7.7-2.1c-2.4-1.4-4.2-3.3-5.6-5.6S4.2,22.8,4.2,20s0.7-5.4,2.1-7.7S9.5,8,11.9,6.6 s4.9-2.1,7.7-2.1c2.8,0,5.4,0.7,7.7,2.1s4.2,3.3,5.6,5.6C34.4,14.6,35.1,17.2,35.1,20z"></path></symbol><symbol id="icon-3b7eeeccbb457780f277fce4669f67a0" viewBox="0 0 40 40"><path d="M33.2,8.3c-2.5-1.1-5.1-1.9-7.9-2.4c-0.3,0.6-0.7,1.4-1,2c-2.9-0.4-5.8-0.4-8.7,0c-0.3-0.6-0.7-1.4-1-2 c-2.8,0.5-5.4,1.3-7.9,2.4c-5,7.2-6.3,14.2-5.6,21.1c3.3,2.3,6.5,3.8,9.6,4.7c0.8-1,1.5-2.1,2.1-3.3c-1.1-0.4-2.2-0.9-3.2-1.5 c0.3-0.2,0.5-0.4,0.8-0.6c6.3,2.8,13,2.8,19.2,0c0.3,0.2,0.5,0.4,0.8,0.6c-1,0.6-2.1,1.1-3.2,1.5c0.6,1.1,1.3,2.2,2.1,3.3 c3.1-0.9,6.3-2.4,9.6-4.7C39.7,21.4,37.5,14.4,33.2,8.3z M13.7,25.1c-1.9,0-3.4-1.7-3.4-3.7s1.5-3.7,3.4-3.7c1.9,0,3.5,1.7,3.4,3.7 C17.1,23.4,15.6,25.1,13.7,25.1z M26.3,25.1c-1.9,0-3.4-1.7-3.4-3.7s1.5-3.7,3.4-3.7c1.9,0,3.5,1.7,3.4,3.7 C29.7,23.4,28.2,25.1,26.3,25.1z"></path></symbol><symbol id="icon-8ed5cb79220f246bea15c1443a10f6e5" viewBox="0 0 40 40"><path d="M38.8,21.5c-2.6,4-5.5,7.7-9.3,10.7c-5.8,4.5-11.5,4.5-17.5,0.3c-4.3-3-7.7-6.9-10.8-11.1 c-2-2.8-1.3-6.7,1.3-8.8c2.8-2.2,6.6-2.1,9,0.5c0.9,0.9,1.6,1.9,2.5,3.1c0.5-4,2.2-7.1,5.3-9.4c5-3.5,11.7-2.9,16,1.4 c2.5,2.5,4.4,5.3,4.7,8.9C40.1,18.6,39.7,20.1,38.8,21.5z M34.7,16.1c-0.3-2.2-1.6-4-3.1-5.6c-3.2-3.4-8.3-3.7-11.6-0.7 c-3.4,3.1-3.6,8.3-0.5,11.8c0.9,0.9,1.7,1.9,2.6,2.9c-1.5,1.2-3.1,1.4-4.7,0.4c-0.6-0.4-1.3-0.8-1.9-1.2c-3.1-2.3-5.5-5.3-7.9-8.3 c-0.9-1.2-2.3-1.4-3.4-0.6C3.3,15.6,3,17,3.9,18.1c2.8,3.7,5.8,7.2,9.6,9.9c4.6,3.3,8.5,3.1,12.9-0.5c3.3-2.7,5.8-6,8.1-9.5 C34.7,17.5,34.8,16.7,34.7,16.1z M26,21.3c-1.1-1.1-2.1-2.1-3-3.1c-1.1-1.2-1.1-3-0.1-4.3c1-1.3,2.9-1.7,4.3-0.9 c2.3,1.3,2.7,3.3,1.2,5.3C27.6,19.3,26.9,20.2,26,21.3z"></path></symbol><symbol id="icon-31b8880d36499db40d4e47546c4763f3" viewBox="0 0 40 40"><path d="M36,36l-12.4-18.3,11.6-13.7h-4l-9.4,11-7.5-11H4.2l12,17.7-12.2,14.3h4l9.9-11.7,7.9,11.7h10.2,0ZM13,6.6l18.2,26.9h-4L9,6.6h4Z"></path></symbol><symbol id="icon-b43e250fbce143ba2d80fbb75f402dd6" viewBox="0 0 40 40"><path d="M4.9,15.5H14L7.5,9.4l3.6-3.7l6.2,6.3V3h5.4v9l6.2-6.3l3.6,3.7L26,15.5h9.1v5.1h-9.2l6.5,6.3l-3.6,3.6L20,21.6l-8.9,8.9 L7.5,27l6.5-6.3H4.9V15.5z M17.3,27.9h5.4V40h-5.4V27.9z"></path></symbol><symbol id="icon-c3c8e1063e3b7f84f6b54712741de139" viewBox="0 0 40 40"><path d="M37.5,12.6l-17.5,11.9L2.5,12.6c-.2-.1-.3-.2-.5-.2v-2.7c0-.8.6-1.4,1.4-1.4h33.1c.8,0,1.4.6,1.4,1.4v2.7c-.2,0-.4,0-.5.2ZM19.5,26.3c.2.1.3.2.5.2s.4,0,.5-.2l17.5-11.9v16.9c0,.8-.6,1.4-1.4,1.4H3.4c-.8,0-1.4-.6-1.4-1.4V14.4l17.5,11.9Z"></path></symbol><symbol id="icon-a1eb5cac0cee3b05a40d856c98ce14a5" viewBox="0 0 40 40"><path d="M38,20.1c0-9.9-8.1-18-18-18S2,10.1,2,20.1s5.8,15.5,13.7,17.5v-12h-3.7v-5.5h3.7v-2.4c0-6.1,2.8-9,8.8-9s3.1.2,3.9.4v5c-.4,0-1.2,0-2.1,0-3,0-4.1,1.1-4.1,4v1.9h5.9l-1,5.5h-4.9v12.4c8.9-1.1,15.8-8.7,15.8-17.9Z"></path></symbol><symbol id="icon-694b338299bf630d8d2ec9bd42d31dbe" viewBox="0 0 40 40"><path d="M36.1,11.7v5c-3.3,0-6.3-1-8.8-2.8v12.9c0,6.5-5.2,11.7-11.7,11.7c-2.4,0-4.6-0.7-6.5-2c0,0,0,0,0,0 c-3.1-2.1-5.2-5.7-5.2-9.7c0-6.5,5.2-11.7,11.7-11.7c0.5,0,1.1,0,1.6,0.1v1.4c0,0,0,0,0,0v5c-0.5-0.2-1.1-0.3-1.6-0.3 c-2.9,0-5.3,2.4-5.3,5.4c0,2.1,1.2,3.9,2.9,4.8c0.7,0.4,1.5,0.6,2.4,0.6c2.9,0,5.3-2.4,5.3-5.3V1.5h6.3v0.8c0,0.2,0.1,0.5,0.1,0.7 c0.4,2.5,1.9,4.7,4,6c0,0,0.1,0.1,0.1,0.1c0,0-0.1-0.1-0.1-0.1c1.4,0.9,3,1.3,4.7,1.3V11.7"></path></symbol><symbol id="icon-5e2b59df8acd112dc7cc5936c30a5abb" viewBox="0 0 40 40"><path d="M20.8,2c3.6,0.1,6.6,0.4,9.4,1.7c4.2,2,6.7,6,6.3,10c-0.5,4.8-3.5,8.3-8.2,9.6c-0.7,0.2-1.3,0.4-2,0.5 c-3.2,0.8-5.4,2.6-6.8,5.6c-0.9,2-1.9,4.1-3.1,5.9c-2.5,3.6-7.1,3.4-9.6-0.2c-1.6-2.3-2.2-4.9-2.6-7.6c-0.6-4.1-0.9-8.2-0.2-12.4 C5.1,7.8,9.6,3.4,17,2.4C18.4,2.2,19.9,2.1,20.8,2z"></path></symbol><symbol id="icon-950f35a71f420383dc2b54f8bf482185" viewBox="0 0 40 40"><path d="M35.3,20c0,2.8-0.7,5.4-2.1,7.7c-1.4,2.4-3.3,4.2-5.6,5.6c-2.4,1.4-4.9,2.1-7.7,2.1c-1.5,0-2.9-0.2-4.4-0.6 c0.8-1.2,1.3-2.3,1.6-3.3c0.1-0.5,0.5-1.9,1.1-4.2c0.3,0.5,0.8,1,1.5,1.4c0.7,0.4,1.5,0.6,2.3,0.6c1.6,0,3.1-0.5,4.3-1.4 c1.3-0.9,2.3-2.2,3-3.8c0.7-1.6,1-3.4,1-5.4c0-1.5-0.4-3-1.2-4.3c-0.8-1.3-2-2.4-3.5-3.3c-1.5-0.8-3.2-1.3-5.1-1.3 c-1.4,0-2.7,0.2-3.9,0.6c-1.2,0.4-2.3,0.9-3.1,1.5c-0.9,0.6-1.6,1.4-2.2,2.2c-0.6,0.8-1.1,1.7-1.3,2.6c-0.3,0.9-0.4,1.8-0.4,2.7 c0,1.4,0.3,2.6,0.8,3.7c0.5,1.1,1.3,1.8,2.3,2.2c0.4,0.2,0.7,0,0.8-0.4c0-0.1,0.1-0.3,0.2-0.6c0.1-0.3,0.1-0.5,0.2-0.6 c0.1-0.3,0-0.6-0.2-0.9c-0.7-0.8-1-1.8-1-3c0-2,0.7-3.8,2.1-5.2c1.4-1.5,3.2-2.2,5.5-2.2c2,0,3.6,0.5,4.7,1.6 c1.1,1.1,1.7,2.5,1.7,4.3c0,2.3-0.5,4.2-1.4,5.8s-2.1,2.4-3.5,2.4c-0.8,0-1.5-0.3-2-0.9c-0.5-0.6-0.6-1.3-0.5-2.1 c0.1-0.5,0.3-1.1,0.5-1.9c0.2-0.8,0.4-1.5,0.6-2.1c0.2-0.6,0.2-1.1,0.2-1.5c0-0.7-0.2-1.2-0.5-1.7c-0.4-0.4-0.9-0.7-1.5-0.7 c-0.8,0-1.5,0.4-2.1,1.1c-0.6,0.8-0.9,1.7-0.9,2.9c0,1,0.2,1.8,0.5,2.5l-2,8.4c-0.2,0.9-0.3,2.1-0.3,3.6c-2.8-1.2-5-3.1-6.7-5.6 S4.4,23.1,4.4,20c0-2.8,0.7-5.4,2.1-7.7S9.7,8,12.1,6.6s4.9-2.1,7.7-2.1c2.8,0,5.4,0.7,7.7,2.1s4.2,3.3,5.6,5.6 C34.6,14.6,35.3,17.2,35.3,20L35.3,20z"></path></symbol><symbol id="icon-13d0add2f28ae7b76992b78ac9a2c22a" viewBox="0 0 40 40"><path d="M27.8,20.5L20,4.1l-7.8,16.4l7.8,8.4L27.8,20.5z M7.5,33.9L1.8,13.5L20,32.3l0,0C15.1,32.3,10.6,32.9,7.5,33.9z M32.5,33.9l5.7-20.4L21.8,30.4l1.8,2C27.1,32.6,30.2,33.2,32.5,33.9z"></path></symbol><symbol id="icon-8c4b37645de3c276d895d87df51ba614" viewBox="0 0 40 40"><path d="M36,20.3c0,3.5-1,6.6-3.1,9.4c-2,2.8-4.7,4.7-7.9,5.8c-0.4,0.1-0.6,0-0.8-0.1c-0.2-0.2-0.3-0.4-0.3-0.6v-4.4 c0-1.3-0.4-2.3-1.1-3c0.8-0.1,1.5-0.2,2.1-0.4c0.6-0.2,1.3-0.4,2-0.8c0.7-0.4,1.2-0.8,1.7-1.4c0.5-0.5,0.8-1.3,1.1-2.2 s0.4-2,0.4-3.1c0-1.7-0.5-3.1-1.6-4.3c0.5-1.3,0.5-2.7-0.2-4.2c-0.4-0.1-1,0-1.7,0.2c-0.7,0.3-1.4,0.6-1.9,0.9L24,12.5 c-1.3-0.4-2.6-0.5-4-0.5s-2.7,0.2-4,0.5c-0.2-0.2-0.5-0.3-0.9-0.6c-0.4-0.2-0.9-0.5-1.7-0.8c-0.8-0.3-1.4-0.4-1.8-0.3 c-0.6,1.6-0.7,3-0.1,4.2c-1.1,1.2-1.6,2.6-1.6,4.3c0,1.2,0.1,2.2,0.4,3.1s0.6,1.6,1.1,2.2s1,1,1.7,1.4c0.7,0.4,1.3,0.6,2,0.8 c0.6,0.2,1.3,0.3,2.1,0.4c-0.6,0.5-0.9,1.2-1,2.1c-0.3,0.1-0.6,0.2-0.9,0.3c-0.3,0.1-0.7,0.1-1.2,0.1c-0.5,0-0.9-0.1-1.4-0.4 c-0.5-0.3-0.8-0.7-1.2-1.3c-0.3-0.4-0.6-0.8-1-1.1c-0.4-0.3-0.8-0.4-1-0.5L9,26.5c-0.3,0-0.5,0-0.6,0.1c-0.1,0.1-0.1,0.1-0.1,0.2 c0,0.1,0.1,0.2,0.2,0.3c0.1,0.1,0.2,0.2,0.3,0.2l0.1,0.1c0.3,0.1,0.6,0.4,0.9,0.8s0.5,0.7,0.7,1.1l0.2,0.5c0.2,0.5,0.5,1,0.9,1.3 c0.4,0.3,0.9,0.5,1.4,0.6c0.5,0.1,1,0.1,1.4,0.1c0.5,0,0.9,0,1.2-0.1l0.5-0.1c0,0.5,0,1.1,0,1.9c0,0.7,0,1.1,0,1.1 c0,0.2-0.1,0.5-0.3,0.6c-0.2,0.2-0.5,0.2-0.8,0.1c-3.2-1.1-5.8-3-7.9-5.8S4,23.8,4,20.3c0-2.9,0.7-5.6,2.1-8S9.5,7.8,12,6.4 s5.1-2.1,8-2.1s5.6,0.7,8,2.1s4.4,3.4,5.8,5.8S36,17.4,36,20.3L36,20.3z"></path></symbol><symbol id="icon-5df67a211ae41c4e5f96b6e0ea004ca3" viewBox="0 0 40 40"><path d="M26.1,34.7c.6,0,1,.5,1,1v1.5c0,.6-.5,1-1,1h-12.2c-.6,0-1-.5-1-1v-1.5c0-.6.5-1,1-1h1.5V16h-1.5c-.6,0-1-.5-1-1v-.5c0-.6.5-1,1-1h12.2c.6,0,1,.5,1,1v.5c0,.6-.5,1-1,1h-1.5v18.8h1.5ZM23,9.8h-6.1c-.8,0-1.5-.7-1.5-1.5V3.2c0-.8.7-1.5,1.5-1.5h6.1c.8,0,1.5.7,1.5,1.5v5.1c0,.8-.7,1.5-1.5,1.5Z"></path></symbol><symbol id="icon-2dbc46d85da4445ab4dcd768598a4d2d" viewBox="0 0 40 40"><path d="M25.4,18.1c1.3,0.4,2.6,0.6,3.8,0.9c1.2,0.3,2.4,0.7,3.6,1.2c1.2,0.5,1.9,1.5,2.3,2.6c0,0.8,0,1.7,0,2.5 c-1.2,3.1-3.7,4.3-6.8,4.5c-2.3,0.2-4.5-0.1-6.4-1.2c-1.7-1-2.6-2.5-2.8-4.6c1.5,0,3,0,4.4,0c0.2,0,0.4,0.3,0.4,0.5 c0.8,2.4,4.4,2.4,5.7,1.2c0.9-0.8,0.8-2.1-0.4-2.6c-1.2-0.5-2.5-0.7-3.8-1c-1.2-0.3-2.3-0.6-3.4-1.1c-3.5-1.7-3.3-6.6-0.4-8.5 c1.3-0.9,2.8-1.3,4.4-1.3c1.8,0,3.5,0,5.2,0.8c1.5,0.7,3.5,2.8,3.2,5c-1.3,0-2.6,0-4,0c-0.2,0-0.5-0.3-0.5-0.5 c-0.7-2.1-3.2-2.4-4.8-1.6c-0.7,0.3-1,0.9-1,1.7C24.2,17.4,24.7,17.9,25.4,18.1z M9.7,34.7c-1.6,0-3.1,0-4.7,0c0-0.2,0-0.4,0.1-0.6 c1.8-6.1,3.5-12.1,5.3-18.2c1-3.5,2.1-7,3.1-10.5c1.6,0,3.1,0,4.7,0c-1.4,4.7-2.7,9.3-4.1,14C12.6,24.4,11.1,29.6,9.7,34.7z"></path></symbol><symbol id="icon-b184e650f6692608d8534fd2d7d555d2" viewBox="0 0 40 40"><path d="M28.3,14.8c0,0.1,0.1,0.4,0.2,0.9c0.1,0.4,0.3,0.7,0.5,1c0.2,0.3,0.5,0.5,0.9,0.7s0.7,0.3,0.9,0.4c0.3,0.1,0.6,0.2,1.1,0.3 c4.5,1.3,6.8,3.6,6.8,6.9c0,2-0.7,3.7-2.2,5.1c-1.5,1.3-3.2,2-5.3,2c-0.8,0-1.6-0.1-2.3-0.4c-0.7-0.3-1.4-0.6-1.9-1 c-0.5-0.4-1.1-0.9-1.6-1.6c-0.5-0.7-1-1.3-1.3-1.8c-0.3-0.6-0.7-1.3-1.1-2.2c-0.4-0.9-0.7-1.6-0.9-2.2c-0.2-0.6-0.5-1.3-0.8-2.2 c-0.3-0.9-0.6-1.6-0.7-2c-0.4-1.1-0.9-2.1-1.3-2.8c-0.4-0.7-0.9-1.4-1.5-2c-0.6-0.6-1.3-1.1-2.2-1.3c-0.8-0.3-1.8-0.4-3-0.4 c-1.3,0-2.6,0.4-3.8,1.2c-1.2,0.8-2.2,1.8-2.9,3c-0.7,1.2-1.1,2.5-1.1,3.9c0,2.2,0.7,4.2,2.2,5.8s3.3,2.5,5.5,2.5 c2.5,0,4.3-0.7,5.4-2c0.8-0.9,1.4-1.7,1.7-2.4l1.8,3.2c-0.2,0.5-0.5,1-0.9,1.5l0,0c-1.8,2.1-4.5,3.2-8.1,3.2c-2,0-3.9-0.6-5.6-1.7 s-3-2.5-4-4.3c-0.9-1.8-1.4-3.7-1.4-5.7c0-1.5,0.3-2.9,0.9-4.3s1.4-2.6,2.4-3.7s2.2-1.9,3.6-2.5s2.8-1,4.3-1c1.2,0,2.3,0.1,3.3,0.4 s1.9,0.6,2.6,1c0.7,0.4,1.4,1,2,1.7c0.6,0.7,1.1,1.4,1.5,2.1c0.4,0.7,0.8,1.5,1.2,2.4c0.4,0.9,0.8,1.8,1.1,2.6 c0.3,0.8,0.6,1.7,1,2.7c0.4,1,0.8,1.9,1.1,2.7c1.3,2.8,3,4.2,4.9,4.2c1.1,0,2.1-0.3,2.9-1c0.8-0.7,1.2-1.6,1.2-2.7 c0-0.6-0.1-1.1-0.4-1.5s-0.6-0.7-1.1-1c-0.4-0.2-0.9-0.4-1.5-0.7c-0.6-0.2-1.2-0.4-1.8-0.6c-0.6-0.2-1.2-0.4-1.8-0.7 c-0.6-0.3-1.2-0.7-1.7-1.1c-0.5-0.4-1-1-1.4-1.7s-0.7-1.6-0.8-2.6c0-0.2-0.1-0.5-0.1-0.7c0-1.5,0.6-2.9,1.8-4 c1.2-1.1,2.6-1.7,4.1-1.6c1.1,0,1.9,0.1,2.5,0.3c0.6,0.2,1.2,0.5,1.9,1.1h0c0.2,0.2,0.3,0.3,0.5,0.5s0.3,0.4,0.5,0.8 c0.2,0.3,0.3,0.5,0.4,0.6l-2.7,2.1c-0.4-0.7-0.7-1.2-1.1-1.5v0c-0.3-0.3-1-0.4-2-0.4c-0.7,0-1.3,0.2-1.8,0.7 C28.5,13.5,28.3,14.1,28.3,14.8L28.3,14.8z"></path></symbol></svg>